<?xml version="1.0" encoding="UTF-8"?>
<svg version="1.1" xmlns="http://www.w3.org/2000/svg" width="512" height="512">
<path d="M0 0 C1.09875458 -0.0071553 2.19750916 -0.01431061 3.32955933 -0.02168274 C5.12340561 -0.02571609 5.12340561 -0.02571609 6.95349121 -0.02983093 C8.85447067 -0.03968773 8.85447067 -0.03968773 10.79385376 -0.04974365 C14.98963164 -0.07071984 19.18540959 -0.08114369 23.38122559 -0.09111023 C24.83121255 -0.09516094 26.28119933 -0.09927796 27.73118591 -0.10346031 C34.54902053 -0.12250209 41.36684442 -0.13673221 48.18470049 -0.14507228 C56.02581843 -0.15482498 63.86665261 -0.18109696 71.70767069 -0.22157317 C77.78605831 -0.25186107 83.86436521 -0.2665533 89.94282675 -0.26985329 C93.564496 -0.2721904 97.18586181 -0.28097329 100.80744934 -0.30631447 C104.85891164 -0.33420574 108.90975111 -0.32972566 112.96130371 -0.32279968 C114.14100739 -0.33560974 115.32071106 -0.3484198 116.53616333 -0.36161804 C132.98168748 -0.25977788 147.05200904 5.84214483 158.70935059 17.25654602 C171.47484828 30.29917799 175.57738861 45.82345174 175.72497559 63.58467102 C175.73440186 64.46187805 175.74382812 65.33908508 175.75354004 66.24287415 C175.74927002 67.07625305 175.745 67.90963196 175.74060059 68.76826477 C175.73834473 69.51519592 175.73608887 70.26212708 175.73376465 71.0316925 C175.43690193 73.45840517 174.73165916 75.06011828 173.47497559 77.14717102 C170.79864533 79.22876122 169.35743891 79.14304693 165.91247559 79.02217102 C162.47497559 78.14717102 162.47497559 78.14717102 160.79528809 76.63154602 C158.85930649 72.98869307 158.99129797 69.5900732 158.91247559 65.52217102 C158.84682505 63.89176829 158.77655006 62.26154487 158.70153809 60.63154602 C158.64788086 59.4626886 158.64788086 59.4626886 158.59313965 58.2702179 C157.95141466 46.74038222 153.15063868 34.99561973 144.47497559 27.14717102 C132.44793094 17.4076231 119.46717249 15.99498873 104.54602051 16.00190735 C103.49108902 15.99854874 102.43615753 15.99519012 101.34925842 15.99172974 C97.88464153 15.98228207 94.42007328 15.98027979 90.95544434 15.97920227 C88.53082764 15.97598555 86.10621114 15.97262117 83.68159485 15.96911621 C78.60710195 15.96314052 73.53262605 15.96127472 68.45812988 15.96186829 C61.97900795 15.96196985 55.49999573 15.94831602 49.02089977 15.93109608 C44.01495368 15.91993873 39.00903381 15.91795022 34.00307655 15.91847801 C31.61544733 15.91730359 29.2278173 15.91291226 26.84020042 15.90514565 C23.49076171 15.89526954 20.14155732 15.89825367 16.79211426 15.9042511 C15.82081573 15.89863159 14.84951721 15.89301208 13.8487854 15.88722229 C-1.71381665 15.95748482 -15.13787105 19.05553202 -26.52502441 30.14717102 C-34.94325401 40.17317408 -37.70260809 51.40557776 -37.6385498 64.28559875 C-37.63876884 65.4575605 -37.63876884 65.4575605 -37.63899231 66.65319824 C-37.63830068 69.21241623 -37.63054369 71.77155964 -37.62268066 74.33076477 C-37.62081382 76.11437948 -37.61939117 77.8979947 -37.61839294 79.68161011 C-37.61458877 84.3586826 -37.60477654 89.03572367 -37.59368896 93.71278381 C-37.58342957 98.49234085 -37.57888565 103.271903 -37.57385254 108.0514679 C-37.56315227 117.41671602 -37.54610124 126.7819409 -37.52502441 136.14717102 C-33.56502441 137.46717102 -29.60502441 138.78717102 -25.52502441 140.14717102 C-25.54597168 138.20020325 -25.56691895 136.25323547 -25.58850098 134.24726868 C-25.65325986 127.78133157 -25.69907986 121.31547177 -25.7322731 114.84929848 C-25.75306033 110.93261563 -25.78121313 107.01628687 -25.82678223 103.09980774 C-25.87056007 99.31315556 -25.89422801 95.52684182 -25.90453339 91.7399559 C-25.911868 90.30238398 -25.9261894 88.86482851 -25.94794464 87.4274025 C-26.10734231 76.44907376 -25.02908366 66.98058861 -17.21643066 58.67842102 C-7.61995943 49.99062258 2.94779807 49.80160822 15.41247559 49.83467102 C16.6235498 49.81855774 17.83462402 49.80244446 19.08239746 49.7858429 C29.44363806 49.78023313 37.45871293 51.34806435 46.03747559 57.20967102 C51.78814347 60.86367101 56.67195808 63.85808697 63.63903809 62.82685852 C69.21856946 61.26932149 73.7289634 58.20535812 78.40856934 54.86592102 C87.06945568 50.01141148 95.65191619 49.67796723 105.41247559 49.77217102 C107.20975098 49.75476868 107.20975098 49.75476868 109.04333496 49.73701477 C119.72042183 49.77192623 129.12172992 51.00697719 137.46325684 58.04560852 C143.90667432 64.77679028 146.60599798 71.49143867 146.58850098 80.65986633 C146.588647 81.3041861 146.58879303 81.94850586 146.58894348 82.61235046 C146.58824909 84.73336705 146.58047895 86.85429485 146.57263184 88.97529602 C146.57076597 90.4493149 146.56934286 91.9233344 146.56834412 93.39735413 C146.56453219 97.27056094 146.55471324 101.14373005 146.54364014 105.016922 C146.53339751 108.97179148 146.52884039 112.92666708 146.52380371 116.88154602 C146.51308976 124.6367735 146.49550371 132.39196217 146.47497559 140.14717102 C150.43497559 138.82717102 154.39497559 137.50717102 158.47497559 136.14717102 C158.47908447 135.17368713 158.48319336 134.20020325 158.48742676 133.19721985 C158.50926343 129.57185023 158.56359775 125.947559 158.62756348 122.32270813 C158.6507044 120.75640733 158.66513007 119.1899518 158.67053223 117.62348938 C158.67985146 115.36608399 158.72089792 113.11109881 158.76794434 110.85420227 C158.76401169 110.15817398 158.76007904 109.46214569 158.75602722 108.74502563 C158.86987291 104.91807701 159.41695682 103.22181372 161.79260254 100.16548157 C164.47497559 98.14717102 164.47497559 98.14717102 168.09997559 98.14717102 C171.29082745 99.09260861 172.57685001 99.51088549 174.47497559 102.14717102 C175.93596403 105.06914792 175.5863246 107.64610577 175.57263184 110.90498352 C175.57050941 111.8995607 175.57050941 111.8995607 175.56834412 112.91423035 C175.56274312 115.03358965 175.55019059 117.15284361 175.53747559 119.27217102 C175.53246071 120.70836741 175.52789778 122.14456546 175.52380371 123.58076477 C175.51277341 127.10293447 175.49550817 130.62504247 175.47497559 134.14717102 C176.08083496 134.41916321 176.68669434 134.6911554 177.31091309 134.97138977 C182.10690624 137.577155 184.79323114 142.10287643 186.47497559 147.14717102 C186.92731892 150.86792023 186.89096241 154.58898878 186.91247559 158.33467102 C186.94534668 159.32531555 186.97821777 160.31596008 187.01208496 161.33662415 C187.0647364 168.63602833 185.60871333 174.07635722 181.47497559 180.14717102 C179.12341309 182.40107727 179.12341309 182.40107727 176.84997559 183.70967102 C176.09458496 184.16471008 175.33919434 184.61974915 174.56091309 185.08857727 C170.98785975 186.90186838 168.2365061 187.26095713 164.28747559 187.20967102 C163.3864209 187.20064758 162.48536621 187.19162415 161.55700684 187.18232727 C160.52640137 187.16492493 160.52640137 187.16492493 159.47497559 187.14717102 C159.41310059 188.15779602 159.35122559 189.16842102 159.28747559 190.20967102 C156.51589284 210.87056057 144.17517364 230.15523885 131.47497559 246.14717102 C132.73310059 246.49779602 133.99122559 246.84842102 135.28747559 247.20967102 C150.30464201 252.25468454 162.64271862 264.16434945 169.97888184 277.97920227 C171.24101719 280.67301354 172.38952922 283.37783827 173.47497559 286.14717102 C173.78306152 286.91931946 174.09114746 287.6914679 174.40856934 288.48701477 C176.42483502 293.97627397 177.122551 299.32608902 177.47497559 305.14717102 C178.8160437 305.28095154 178.8160437 305.28095154 180.1842041 305.41743469 C185.98666988 306.25315018 191.53264825 308.1203547 197.12731934 309.82295227 C198.34141983 310.18938339 199.55552032 310.55581451 200.80641174 310.93334961 C203.36823128 311.70832885 205.92928548 312.48544699 208.48937988 313.2660675 C211.74909942 314.25952905 215.0120782 315.24176309 218.27612972 316.22088337 C221.41607467 317.1648247 224.55275727 318.11948187 227.68981934 319.07295227 C228.85150131 319.42102432 230.01318329 319.76909637 231.21006775 320.12771606 C239.46950883 322.66146891 246.98780167 325.38606899 253.59997559 331.14717102 C254.38630371 331.80717102 255.17263184 332.46717102 255.98278809 333.14717102 C265.5141191 344.62062277 266.73068588 358.38729345 269.03747559 372.64717102 C269.44960347 375.10654805 269.86363569 377.5656066 270.27941895 380.02436829 C271.06826637 384.70110264 271.85102503 389.37872719 272.62560368 394.05784321 C274.21651113 403.66235231 275.86287119 413.2568395 277.5237751 422.84946823 C278.71732805 429.74386005 279.9068113 436.63895691 281.09705734 443.53392029 C281.39044884 445.23314275 281.68397941 446.9323412 281.97764969 448.6315155 C282.82106785 453.512565 283.6610036 458.39418854 284.49571228 463.27673531 C284.75125996 464.76819487 285.00801506 466.25944816 285.26609802 467.75047112 C289.88550544 494.45180482 289.88550544 494.45180482 283.95935059 503.44795227 C279.54132552 508.89087955 274.93134344 511.78157554 267.9089151 512.52436918 C265.99650329 512.52591287 265.99650329 512.52591287 264.04545689 512.52748775 C263.32728305 512.53214767 262.60910922 512.53680759 261.86917254 512.54160872 C259.46801888 512.55353845 257.06743319 512.54417139 254.66627502 512.53485107 C252.92526593 512.53902488 251.18425955 512.54450265 249.44325823 512.55117089 C244.66300022 512.56563802 239.88291444 512.56137679 235.10264695 512.55400407 C229.94576972 512.54927787 224.78893005 512.56177738 219.63206482 512.57202148 C209.53101882 512.58922536 199.43003498 512.59004622 189.32897813 512.58480858 C181.11982439 512.58076873 172.91068904 512.58220823 164.70153618 512.58755684 C162.94961983 512.58867947 162.94961983 512.58867947 161.16231124 512.58982478 C158.78971382 512.59135624 156.41711641 512.59289459 154.044519 512.59443975 C131.79049855 512.60817045 109.53651324 512.60272301 87.28249358 512.59125454 C66.91874984 512.58132077 46.55509694 512.59426433 26.19136722 512.61818873 C5.2858681 512.64256476 -15.61958868 512.65219133 -36.52510172 512.64553601 C-48.2635818 512.64204056 -60.001992 512.64429736 -71.74046135 512.66178703 C-81.73276728 512.67649025 -91.72495412 512.67716901 -101.71725767 512.65971612 C-106.81596792 512.65118843 -111.91446523 512.64909979 -117.01316452 512.66436768 C-121.680827 512.67817189 -126.34809328 512.67350663 -131.01573259 512.65412844 C-132.70407865 512.65035501 -134.39245612 512.65332894 -136.0807743 512.66374009 C-145.50381252 512.71771507 -152.78068593 512.68395701 -160.51330566 506.57685852 C-164.84370085 501.49279574 -167.45489905 495.60319065 -167.56140137 488.83564758 C-167.32500476 486.47116591 -166.95773645 484.17117561 -166.52502441 481.83467102 C-166.38056885 480.96455383 -166.23611328 480.09443665 -166.08728027 479.19795227 C-165.76321228 477.26325796 -165.42927818 475.33019806 -165.08703613 473.39863586 C-164.46076229 469.77538868 -163.89955169 466.14480241 -163.34143066 462.51045227 C-162.92495 459.88912166 -162.50699178 457.26802536 -162.08752441 454.64717102 C-161.89480957 453.38864319 -161.70209473 452.13011536 -161.50354004 450.83345032 C-161.2067334 449.05514832 -161.2067334 449.05514832 -160.90393066 447.24092102 C-160.73449951 446.18582336 -160.56506836 445.13072571 -160.39050293 444.0436554 C-159.37262624 440.63714227 -157.97886013 438.69954862 -155.52502441 436.14717102 C-151.83523021 434.89107087 -150.26115612 434.80364289 -146.71252441 436.45967102 C-144.52502441 438.14717102 -144.52502441 438.14717102 -143.52502441 440.14717102 C-143.30304942 445.7062948 -143.80515733 450.782524 -144.83752441 456.23310852 C-145.11101791 457.75653597 -145.38445362 459.27997379 -145.65783691 460.80342102 C-146.08984121 463.16230162 -146.5247373 465.52062114 -146.96154785 467.87861633 C-149.68833607 480.44236519 -149.68833607 480.44236519 -149.52502441 493.14717102 C-145.84097688 496.83121855 -141.69178506 496.27294434 -136.67491245 496.27580547 C-135.63695167 496.27843503 -135.63695167 496.27843503 -134.57802197 496.28111771 C-132.24812621 496.28578748 -129.91829258 496.2833097 -127.58839417 496.28088379 C-125.90558634 496.28275127 -124.22277895 496.28505171 -122.53997225 496.28774911 C-117.90681566 496.29388127 -113.27367708 496.29373186 -108.64051735 496.29255474 C-103.64725917 496.29235109 -98.65400682 496.29786601 -93.66075134 496.3026123 C-83.87514739 496.31092694 -74.08954946 496.3136675 -64.30394227 496.31422468 C-56.35261039 496.31469941 -48.40128051 496.31675201 -40.44994926 496.31992531 C-17.92119758 496.32873374 4.60754934 496.33334433 27.13630276 496.33259483 C28.95898121 496.3325349 28.95898121 496.3325349 30.81848145 496.33247375 C32.64337735 496.33241243 32.64337735 496.33241243 34.50513984 496.33234987 C54.23088812 496.33194325 73.95661734 496.34151651 93.68236011 496.35561212 C113.92216435 496.36996132 134.16195928 496.37688312 154.40176874 496.37601835 C165.7707373 496.37568589 177.13968585 496.37845408 188.50864983 496.3891964 C198.18670754 496.39828221 207.86473618 496.40049246 217.54279631 496.39368697 C222.48308894 496.39041217 227.42332574 496.39039958 232.36361313 496.39904022 C236.88309905 496.40686379 241.40248447 496.40551651 245.92196781 496.39675609 C247.55988105 496.39521192 249.19780164 496.39707147 250.83570623 496.40261617 C253.05693448 496.40963954 255.27780661 496.40441176 257.49902248 496.39605999 C258.73436275 496.39627736 259.96970302 496.39649473 261.24247783 496.39671868 C264.64795492 496.13381708 267.96404834 495.65809827 270.47497559 493.14717102 C271.17139185 485.45931535 269.83138479 477.95185412 268.5189209 470.40473938 C268.20669083 468.55154839 268.20669083 468.55154839 267.88815308 466.66091919 C267.31987313 463.30035912 266.74417865 459.94125153 266.16426182 456.58269191 C265.6791417 453.76772994 265.19908192 450.95191409 264.71893191 448.13610083 C263.58536894 441.48929295 262.44308191 434.8440253 261.29528809 428.19966125 C260.11513917 421.36707639 258.94986968 414.53207166 257.79187322 407.69570059 C256.7932537 401.80346463 255.78533107 395.91287101 254.77005458 390.02348238 C254.16547854 386.51591751 253.56434346 383.0078552 252.97220612 379.49816704 C252.3111913 375.58313653 251.6307697 371.67161214 250.9486084 367.76020813 C250.66160568 366.03696823 250.66160568 366.03696823 250.36880493 364.27891541 C248.93348496 356.18452828 247.31413408 347.33207015 240.27755737 342.18434143 C233.00114029 337.99763293 224.55877272 335.83504141 216.56091309 333.47529602 C215.46526031 333.14801514 214.36960754 332.82073425 213.24075317 332.48353577 C209.77844097 331.45039083 206.31426049 330.42367938 202.84997559 329.39717102 C200.48656733 328.69317018 198.12328478 327.98874715 195.76013184 327.28388977 C190.00007262 325.56597737 184.23752513 323.85679826 178.47497559 322.14717102 C178.14497559 334.68717102 177.81497559 347.22717102 177.47497559 360.14717102 C180.11497559 360.80717102 182.75497559 361.46717102 185.47497559 362.14717102 C195.46541569 366.57607252 202.68195544 374.00650708 206.78356934 384.10420227 C209.72789809 392.80411154 210.23251636 405.40407316 206.63513184 414.03779602 C200.92779769 424.41476719 193.20127268 432.90562096 181.66247559 436.65107727 C168.25409021 439.69190752 157.09241325 437.3579944 145.47497559 430.14717102 C137.45366467 423.96877286 132.32932164 415.09320893 130.47497559 405.14717102 C129.53326809 392.36685498 131.86758422 383.38553688 139.47497559 373.14717102 C140.05247559 372.26029602 140.62997559 371.37342102 141.22497559 370.45967102 C147.05842319 364.46418321 153.42692692 362.15918319 161.47497559 360.14717102 C161.47497559 345.62717102 161.47497559 331.10717102 161.47497559 316.14717102 C158.17497559 315.48717102 154.87497559 314.82717102 151.47497559 314.14717102 C148.73289286 313.31699918 146.04772186 312.46913502 143.34997559 311.52217102 C142.67966309 311.2927179 142.00935059 311.06326477 141.31872559 310.82685852 C139.70219206 310.27261846 138.08827669 309.71075087 136.47497559 309.14717102 C136.11790527 310.30346008 135.76083496 311.45974915 135.39294434 312.65107727 C133.21286154 319.18370743 130.44710525 325.47368277 127.75430298 331.80619812 C120.97252033 347.78848006 114.65670209 363.91954966 108.5267334 380.16133118 C107.85327577 381.9456906 107.17977312 383.73003303 106.50622559 385.51435852 C106.00611969 386.83973129 106.00611969 386.83973129 105.49591064 388.19187927 C101.60480244 398.4830192 97.57845387 408.72081899 93.55471802 418.96064758 C89.56698818 429.11614052 85.65024203 439.29439866 81.83044434 449.51435852 C81.44433487 450.5455632 81.0582254 451.57676788 80.66041565 452.63922119 C78.78244695 457.65743627 76.91302701 462.67856824 75.05725098 467.70503235 C74.37906389 469.52308919 73.70061075 471.34104681 73.02185059 473.15888977 C72.72147385 473.98198639 72.42109711 474.80508301 72.11161804 475.65312195 C70.26262627 480.57730306 68.26416736 485.35797925 64.47497559 489.14717102 C58.74285777 489.71098589 58.74285777 489.71098589 56.47497559 489.14717102 C53.26095525 485.65299491 51.52113835 482.3003322 49.87341309 477.87373352 C49.63996689 477.25519501 49.40652069 476.63665649 49.16600037 475.99937439 C48.65615886 474.64509847 48.15056276 473.28921844 47.64871216 471.93196106 C46.82594536 469.70719309 45.99207461 467.48685927 45.15539551 465.26728821 C43.92010207 461.98862016 42.688837 458.70847718 41.45983887 455.42744446 C37.94759706 446.06685575 34.36418307 436.73326751 30.78747559 427.39717102 C30.40962921 426.41027283 30.03178284 425.42337463 29.64248657 424.40657043 C18.36442113 394.95668066 6.94247193 365.56272355 -4.90002441 336.33467102 C-5.21144379 335.56540283 -5.52286316 334.79613464 -5.84371948 334.0035553 C-9.76008053 324.32635224 -9.76008053 324.32635224 -13.93908691 314.76045227 C-15.52502441 311.14717102 -15.52502441 311.14717102 -15.52502441 309.14717102 C-16.50112671 309.46524719 -16.50112671 309.46524719 -17.49694824 309.78974915 C-20.44235817 310.74675103 -23.38989372 311.69703244 -26.33752441 312.64717102 C-27.36168457 312.98103821 -28.38584473 313.3149054 -29.44104004 313.65888977 C-30.4239502 313.97471008 -31.40686035 314.2905304 -32.41955566 314.61592102 C-33.77850952 315.0558136 -33.77850952 315.0558136 -35.16491699 315.5045929 C-37.52502441 316.14717102 -37.52502441 316.14717102 -40.52502441 316.14717102 C-40.52502441 322.41717102 -40.52502441 328.68717102 -40.52502441 335.14717102 C-37.88502441 335.80717102 -35.24502441 336.46717102 -32.52502441 337.14717102 C-23.32343622 341.2925063 -17.02987569 347.43565265 -12.71252441 356.52217102 C-10.94061273 361.29589588 -10.016015 365.86832378 -9.52111816 370.91279602 C-9.44116608 371.67895233 -9.36121399 372.44510864 -9.27883911 373.23448181 C-8.24046981 383.49538406 -7.45007412 393.77989972 -6.66516113 404.06269836 C-6.39881643 407.53793272 -6.12425737 411.01245697 -5.84924316 414.48701477 C-5.67557051 416.73567447 -5.50237657 418.9843712 -5.32971191 421.23310852 C-5.2078804 422.7616597 -5.2078804 422.7616597 -5.08358765 424.3210907 C-3.36804078 447.20373103 -3.36804078 447.20373103 -9.83752441 454.89717102 C-15.6214549 459.73953143 -20.35910631 460.6292155 -27.65002441 460.52217102 C-28.4479541 460.53377258 -29.24588379 460.54537415 -30.06799316 460.55732727 C-33.54425242 460.53991696 -35.91150137 460.46831199 -39.02502441 458.83857727 C-41.41005877 456.1492026 -41.40193009 453.65535914 -41.52502441 450.14717102 C-40.90002441 447.83467102 -40.90002441 447.83467102 -39.52502441 446.14717102 C-35.75327244 444.30827415 -32.44108222 443.82580983 -28.27502441 443.58467102 C-24.58399323 443.67471094 -24.58399323 443.67471094 -21.52502441 442.14717102 C-21.56875048 439.16064182 -21.68187871 436.20617857 -21.84533691 433.22529602 C-21.8935257 432.29316284 -21.94171448 431.36102966 -21.99136353 430.40065002 C-22.56830401 419.67999076 -23.32411751 408.97225225 -24.14465332 398.26777649 C-24.31649918 395.99960825 -24.48307121 393.73103494 -24.64465332 391.46211243 C-24.88259898 388.12181313 -25.13567929 384.78296328 -25.39221191 381.44404602 C-25.46108612 380.44081299 -25.52996033 379.43757996 -25.60092163 378.40394592 C-26.24696539 370.37276189 -27.42084456 361.92139521 -33.52502441 356.14717102 C-39.31299984 352.10107445 -45.5274226 350.90164113 -52.52502441 351.14717102 C-58.37485142 352.21077593 -63.86934944 355.43644049 -67.52502441 360.14717102 C-71.28710061 367.68967501 -71.46522281 375.8149942 -72.08752441 384.08467102 C-72.21002173 385.60802297 -72.33348566 387.13129749 -72.45788574 388.65449524 C-72.70591454 391.71102644 -72.94753235 394.76796297 -73.1842041 397.82539368 C-73.48442774 401.67840557 -73.81553609 405.52811386 -74.15783691 409.37763977 C-75.1476356 420.66824063 -75.82915638 431.80980717 -75.52502441 443.14717102 C-74.64459473 443.18455383 -73.76416504 443.22193665 -72.85705566 443.26045227 C-71.1148877 443.35906555 -71.1148877 443.35906555 -69.33752441 443.45967102 C-68.18896973 443.51767883 -67.04041504 443.57568665 -65.85705566 443.63545227 C-62.34503169 444.17481351 -60.36203343 445.04664332 -57.52502441 447.14717102 C-55.97915566 450.23890854 -56.2314292 452.74146654 -56.52502441 456.14717102 C-58.17075256 458.6004846 -59.45795693 459.93212884 -62.41247559 460.52754211 C-64.71316811 460.68829146 -66.9693564 460.6923802 -69.27502441 460.64717102 C-70.04846191 460.66263977 -70.82189941 460.67810852 -71.61877441 460.69404602 C-77.34872499 460.65558998 -81.73622407 459.33123632 -86.52502441 456.14717102 C-88.90002441 453.64717102 -88.90002441 453.64717102 -90.52502441 451.14717102 C-90.88306152 450.6172052 -91.24109863 450.08723938 -91.60998535 449.54121399 C-93.01169313 445.87388568 -92.82842333 442.21394178 -92.79064941 438.34248352 C-92.78543274 437.43273773 -92.78021606 436.52299194 -92.77484131 435.5856781 C-92.60629965 423.39613593 -91.61357193 411.24905938 -90.60852051 399.10517883 C-90.32555402 395.67887059 -90.0647897 392.25125033 -89.8093071 388.82279778 C-89.55675395 385.48965234 -89.28170069 382.15844823 -89.00939941 378.82685852 C-88.92067566 377.61521027 -88.8319519 376.40356201 -88.74053955 375.15519714 C-87.6325999 362.35910904 -83.9287777 351.88675216 -74.58361816 342.82295227 C-69.06455633 338.33020554 -63.49129413 336.30821597 -56.52502441 335.14717102 C-56.85502441 330.85717102 -57.18502441 326.56717102 -57.52502441 322.14717102 C-64.69219663 324.26458599 -71.85616396 326.39228679 -79.01500702 328.53768444 C-82.34007433 329.53371946 -85.66631256 330.52537652 -88.99572754 331.50679016 C-92.83245592 332.63795964 -96.66311685 333.7885777 -100.49377441 334.94013977 C-102.26923645 335.4592115 -102.26923645 335.4592115 -104.08056641 335.98876953 C-112.31905684 338.48831189 -120.94724412 341.34798979 -125.52502441 349.14717102 C-127.89397363 356.37250454 -129.27761223 363.76211959 -130.46252441 371.25654602 C-130.80351421 373.33079043 -131.14466475 375.40500842 -131.48596191 377.47920227 C-132.00887788 380.6999116 -132.5288556 383.92106025 -133.04553223 387.14277649 C-133.55186979 390.28616969 -134.06913622 393.42762107 -134.58752441 396.56904602 C-134.73761963 397.52647705 -134.88771484 398.48390808 -135.0423584 399.47035217 C-137.07199303 411.69413964 -137.07199303 411.69413964 -141.52502441 416.14717102 C-145.69670631 416.69814787 -147.86617178 416.53150172 -151.52502441 414.39717102 C-155.99296416 407.13676894 -152.04963854 395.35138507 -150.66955566 387.24092102 C-150.48543625 386.15436218 -150.30131683 385.06780334 -150.11161804 383.94831848 C-149.72214 381.66886033 -149.32955015 379.38993185 -148.93395996 377.11152649 C-148.33950095 373.6586516 -147.77111155 370.2020815 -147.20275879 366.74482727 C-142.34078609 338.12978538 -142.34078609 338.12978538 -130.52502441 329.14717102 C-125.01921719 325.2951167 -119.68663962 322.91740715 -113.25939941 321.02607727 C-111.94917816 320.62521156 -111.94917816 320.62521156 -110.61248779 320.21624756 C-107.8365217 319.36975791 -105.05602205 318.53946137 -102.27502441 317.70967102 C-100.45699297 317.15800034 -98.6392818 316.60527304 -96.82189941 316.0514679 C-93.20673914 314.95200734 -89.58887678 313.86223829 -85.96838379 312.7804718 C-82.25602419 311.67063341 -78.54995007 310.54236194 -74.84729004 309.40058899 C-73.93481506 309.12117966 -73.02234009 308.84177032 -72.08221436 308.55389404 C-70.34729584 308.02241665 -68.61361601 307.4868731 -66.88140869 306.94662476 C-66.10412415 306.70979477 -65.3268396 306.47296478 -64.52600098 306.22895813 C-63.84749084 306.01935959 -63.16898071 305.80976105 -62.46990967 305.59381104 C-60.52502441 305.14717102 -60.52502441 305.14717102 -56.52502441 305.14717102 C-56.49924316 304.56451477 -56.47346191 303.98185852 -56.44689941 303.38154602 C-55.24686897 286.03565141 -46.62557654 271.24772315 -34.52502441 259.14717102 C-28.7443937 254.15766862 -18.37082411 246.14717102 -10.52502441 246.14717102 C-11.74125488 244.59836243 -11.74125488 244.59836243 -12.98205566 243.01826477 C-24.56251772 227.87309556 -38.52502441 206.98722838 -38.52502441 187.14717102 C-39.43381348 187.23418274 -39.43381348 187.23418274 -40.36096191 187.32295227 C-47.43095063 187.70364397 -52.79864573 186.43456298 -58.52502441 182.14717102 C-64.93362792 174.72463025 -65.74885258 168.45938017 -65.83752441 158.95967102 C-65.88103027 157.43503235 -65.88103027 157.43503235 -65.92541504 155.8795929 C-65.99489428 147.60087452 -64.35250589 142.37857842 -58.90002441 136.14717102 C-56.52502441 134.14717102 -56.52502441 134.14717102 -54.52502441 134.14717102 C-54.53501717 132.67164261 -54.53501717 132.67164261 -54.54521179 131.16630554 C-54.60634932 121.84066712 -54.65115244 112.51507001 -54.68046093 103.18927574 C-54.69603585 98.3961837 -54.71712249 93.60325502 -54.75134277 88.81025696 C-54.78423068 84.17422025 -54.80193868 79.53833946 -54.80965614 74.90219498 C-54.81514735 73.14419225 -54.82586825 71.38619687 -54.84221458 69.62826157 C-55.01970826 49.72644925 -51.99847238 32.10810644 -37.78039551 17.2089386 C-27.60051915 7.04460667 -14.63294282 0.0656921 0 0 Z M-5.52502441 70.14717102 C-9.16372819 74.75063456 -10.02406236 77.76774661 -10.02331543 83.602005 C-10.02883423 84.32315491 -10.03435303 85.04430481 -10.04003906 85.78730774 C-10.04932254 87.34394046 -10.04949452 88.90064915 -10.04144478 90.45728874 C-10.02876333 92.92583759 -10.04015087 95.39327664 -10.05747986 97.86178589 C-10.08413905 102.21402068 -10.08977727 106.56598158 -10.08837891 110.91828918 C-10.08614789 117.88002027 -10.10039759 124.84141196 -10.14396477 131.80301094 C-10.15376201 134.22654395 -10.14510729 136.6495376 -10.13526917 139.07305908 C-10.14141719 140.56969041 -10.14833019 142.06631886 -10.15612793 143.5629425 C-10.15516617 144.86166794 -10.15420441 146.16039337 -10.1532135 147.49847412 C-10.58471952 151.73297776 -11.59714418 154.37448826 -13.52502441 158.14717102 C-16.51888474 160.4183754 -19.8737262 160.55937677 -23.52502441 161.14717102 C-24.74345315 190.83559304 -16.76336005 214.17712429 3.43591309 236.44795227 C18.79569334 252.84147312 37.60778325 262.19705388 60.16247559 263.10810852 C79.95960018 263.51764411 98.0549786 254.79398781 112.21325684 241.34248352 C113.33280762 240.25580383 113.33280762 240.25580383 114.47497559 239.14717102 C115.14915527 238.5464679 115.82333496 237.94576477 116.51794434 237.32685852 C127.6557774 227.0560424 134.79929332 212.9922927 140.47497559 199.14717102 C140.93130371 198.04373352 141.38763184 196.94029602 141.85778809 195.80342102 C145.74337496 184.60858332 144.84964609 172.83977286 144.47497559 161.14717102 C143.20524902 160.8558429 141.93552246 160.56451477 140.62731934 160.26435852 C136.8546257 159.39874557 134.83313452 158.35426717 132.47497559 155.14717102 C131.18193448 151.45754538 131.34346292 147.78015824 131.33312988 143.90351868 C131.32965546 143.18105453 131.32618103 142.45859039 131.32260132 141.7142334 C131.31526294 140.14881276 131.30990736 138.58338185 131.30631065 137.01794815 C131.29912568 134.53753034 131.28344447 132.05730811 131.26496887 129.57695007 C131.21259143 122.52583985 131.16452431 115.47483887 131.14904785 108.42353821 C131.13895343 104.1069051 131.10959537 99.79076788 131.06772804 95.4743309 C131.05543703 93.83258697 131.05029332 92.19077295 131.05252647 90.54898453 C131.05488576 88.24865727 131.03266911 85.94974768 131.00500488 83.64961243 C130.99913864 82.34263397 130.9932724 81.03565552 130.98722839 79.68907166 C130.30826962 74.99450584 128.39319632 71.77927117 124.77600098 68.70161438 C118.61109945 65.55225573 112.73142246 65.5851057 105.91247559 65.70967102 C104.81483887 65.70258118 103.71720215 65.69549133 102.58630371 65.68818665 C93.75646919 65.75737763 88.60425903 67.44993924 81.41247559 72.64717102 C72.12572957 78.63083364 62.29899873 80.14907585 51.51403809 78.01045227 C45.20129219 76.21724296 39.87343382 73.25171147 34.59997559 69.39717102 C28.65657553 65.11792298 22.32927313 65.89584465 15.22497559 65.83467102 C14.1176709 65.80566711 13.01036621 65.77666321 11.86950684 65.7467804 C5.47068763 65.6973246 -0.46301291 65.81028609 -5.52502441 70.14717102 Z M-49.52502441 151.14717102 C-49.63321102 153.73162875 -49.71239678 156.31154454 -49.77502441 158.89717102 C-49.80854004 159.6267804 -49.84205566 160.35638977 -49.87658691 161.10810852 C-49.93938605 164.56206106 -49.79140693 166.73871783 -47.88439941 169.66279602 C-45.14318366 171.67968692 -45.14318366 171.67968692 -39.52502441 171.14717102 C-39.52502441 164.87717102 -39.52502441 158.60717102 -39.52502441 152.14717102 C-42.82502441 151.81717102 -46.12502441 151.48717102 -49.52502441 151.14717102 Z M160.47497559 152.14717102 C160.47497559 158.41717102 160.47497559 164.68717102 160.47497559 171.14717102 C166.09313483 171.67968692 166.09313483 171.67968692 168.83435059 169.66279602 C171.12950705 166.14355612 170.91090776 162.94477134 170.72497559 158.89717102 C170.69790527 157.77955383 170.69790527 157.77955383 170.67028809 156.63935852 C170.62333207 154.80807401 170.55159211 152.97745453 170.47497559 151.14717102 C166.79143903 151.07646034 166.79143903 151.07646034 160.47497559 152.14717102 Z M117.47497559 259.14717102 C117.38727175 263.00119231 117.33434823 266.85495393 117.28747559 270.70967102 C117.26233887 271.79570618 117.23720215 272.88174133 117.21130371 274.00068665 C117.1554095 280.1304183 117.23820704 284.84468952 120.47497559 290.14717102 C123.44156877 292.06736012 125.46753656 292.29973919 128.94372559 292.04951477 C135.35726825 291.91648791 140.91972615 293.76175071 146.97497559 295.70967102 C149.10839719 296.38398463 151.24373047 297.05228972 153.38122559 297.71357727 C154.77824707 298.16132507 154.77824707 298.16132507 156.20349121 298.61811829 C158.49026267 299.40554699 158.49026267 299.40554699 160.47497559 298.14717102 C155.85548202 283.3131451 148.08246997 271.56717849 134.17053223 264.08369446 C128.47030127 261.15140454 123.80497897 259.70121946 117.47497559 259.14717102 Z M-19.52502441 268.14717102 C-20.14119629 268.56482727 -20.75736816 268.98248352 -21.39221191 269.41279602 C-30.47282873 276.35925865 -36.43443513 287.36252729 -39.52502441 298.14717102 C-36.70900152 299.55518247 -35.46496402 298.67650589 -32.50158691 297.71357727 C-31.47936035 297.3945343 -30.45713379 297.07549133 -29.40393066 296.7467804 C-27.27123614 296.06703202 -25.14091141 295.37979286 -23.01330566 294.6842804 C-16.44374558 292.65123471 -10.84997057 291.82784568 -3.96862793 292.24165344 C-1.25379943 292.38623597 -1.25379943 292.38623597 1.16247559 289.89717102 C3.19542389 285.63766028 3.59769424 282.2182786 3.57263184 277.50654602 C3.56940918 276.43662415 3.56618652 275.36670227 3.56286621 274.26435852 C3.5544873 273.15318665 3.5461084 272.04201477 3.53747559 270.89717102 C3.53296387 269.7705304 3.52845215 268.64388977 3.52380371 267.48310852 C3.51202956 264.70440885 3.49558398 261.92581693 3.47497559 259.14717102 C-5.11953096 259.14717102 -12.61274063 263.41401399 -19.52502441 268.14717102 Z M19.47497559 269.14717102 C19.44919434 270.16295227 19.42341309 271.17873352 19.39685059 272.22529602 C19.01090865 282.67502429 17.37174227 291.74889237 12.47497559 301.14717102 C19.75867887 307.33422685 27.32668269 313.04227034 35.03796387 318.67939758 C43.27937768 324.71145279 51.38635723 330.91241014 59.47497559 337.14717102 C62.30247523 335.81275731 64.77108126 334.30947751 67.28356934 332.45185852 C68.02075195 331.90843811 68.75793457 331.3650177 69.51745605 330.80513 C70.70299072 329.92256531 70.70299072 329.92256531 71.91247559 329.02217102 C72.73634766 328.41123596 73.56021973 327.8003009 74.40905762 327.17085266 C77.10202948 325.16869102 79.78944856 323.15930652 82.47497559 321.14717102 C83.41969727 320.43963684 84.36441895 319.73210266 85.33776855 319.00312805 C88.1797305 316.86961115 91.01598448 314.72876156 93.84997559 312.58467102 C95.17726685 311.58572815 95.17726685 311.58572815 96.53137207 310.56660461 C100.80784927 307.31497954 104.80804685 304.07817899 108.47497559 300.14717102 C108.07665527 299.40273743 108.07665527 299.40273743 107.67028809 298.64326477 C107.31708496 297.96392883 106.96388184 297.2845929 106.59997559 296.58467102 C106.25192871 295.92338196 105.90388184 295.2620929 105.54528809 294.58076477 C102.95295624 288.6865212 102.12862138 283.05466804 101.84997559 276.70967102 C101.81130371 275.97812805 101.77263184 275.24658508 101.73278809 274.49287415 C101.63963575 272.7113357 101.55627272 270.9292898 101.47497559 269.14717102 C97.68391036 270.38868946 93.94942826 271.71983586 90.22497559 273.14717102 C69.92464823 280.46726225 47.65959856 279.32676476 27.47497559 272.14717102 C25.47306811 271.1509951 23.47268071 270.15174767 21.47497559 269.14717102 C20.81497559 269.14717102 20.15497559 269.14717102 19.47497559 269.14717102 Z M5.47497559 317.14717102 C8.0486235 325.37381399 11.33850034 333.2669558 14.66247559 341.20967102 C15.2272185 342.56567016 15.79167387 343.92178909 16.35583496 345.2780304 C17.72557135 348.56913087 19.0991854 351.85859586 20.47497559 355.14717102 C26.13115019 353.33962791 31.59587953 351.33706736 37.03747559 348.95967102 C37.66460449 348.6870343 38.2917334 348.41439758 38.93786621 348.13349915 C40.45172349 347.47479789 41.96357849 346.81149777 43.47497559 346.14717102 C42.19109146 342.29551864 39.94753852 341.13233698 36.72497559 338.95967102 C29.08280415 333.67824551 21.73832028 328.03633352 14.4095459 322.33003235 C13.53910645 321.65867249 12.66866699 320.98731262 11.77185059 320.29560852 C10.99164551 319.68894348 10.21144043 319.08227844 9.40759277 318.45722961 C7.58819245 316.96013687 7.58819245 316.96013687 5.47497559 317.14717102 Z M109.97497559 319.75263977 C109.26067383 320.31821594 108.54637207 320.88379211 107.8104248 321.46650696 C107.03972656 322.0830011 106.26902832 322.69949524 105.47497559 323.33467102 C98.13146809 329.14896759 90.65175865 334.7077244 82.96325684 340.05805969 C82.2426709 340.56699768 81.52208496 341.07593567 80.77966309 341.60029602 C79.82035889 342.26786926 79.82035889 342.26786926 78.8416748 342.94892883 C78.16515869 343.54205872 78.16515869 343.54205872 77.47497559 344.14717102 C77.47497559 344.80717102 77.47497559 345.46717102 77.47497559 346.14717102 C80.93078873 347.65302625 84.39002312 349.15085391 87.84997559 350.64717102 C88.83481934 351.07642883 89.81966309 351.50568665 90.83435059 351.94795227 C91.77536621 352.35400696 92.71638184 352.76006165 93.68591309 353.17842102 C94.55522461 353.5554718 95.42453613 353.93252258 96.32019043 354.32099915 C98.40159288 355.26650455 98.40159288 355.26650455 100.47497559 355.14717102 C102.13314295 351.18362481 103.7870073 347.2183174 105.43713379 343.25141907 C105.99751574 341.90589101 106.55901275 340.56082673 107.1217041 339.21626282 C110.16725066 331.93672977 113.11656753 324.6858017 115.47497559 317.14717102 C112.80676894 317.14717102 112.04669523 318.09351286 109.97497559 319.75263977 Z M52.34997559 359.14717102 C51.36190918 359.57642883 51.36190918 359.57642883 50.35388184 360.01435852 C48.72616888 360.72205981 47.100386 361.43419726 45.47497559 362.14717102 C45.47497559 366.06868774 46.3943703 367.75702458 48.97106934 370.66279602 C54.7643149 374.09716936 63.06427621 373.72208546 69.47497559 372.14717102 C72.78086849 369.9574308 74.67185736 367.65933174 76.47497559 364.14717102 C73.91080411 361.1005422 71.06528328 359.93766004 67.41247559 358.45967102 C66.34899902 358.02267883 65.28552246 357.58568665 64.18981934 357.13545227 C59.51415848 355.43337717 56.68654727 357.24079693 52.34997559 359.14717102 Z M26.47497559 370.14717102 C30.9983916 383.33480908 30.9983916 383.33480908 36.47497559 396.14717102 C36.80497559 396.14717102 37.13497559 396.14717102 37.47497559 396.14717102 C39.95457585 388.22637906 39.95457585 388.22637906 38.63659668 380.30635071 C36.09784737 376.41899189 33.02925268 373.11904742 29.47497559 370.14717102 C28.48497559 370.14717102 27.49497559 370.14717102 26.47497559 370.14717102 Z M91.47497559 370.14717102 C84.08663361 376.89758329 84.08663361 376.89758329 81.25622559 386.06123352 C81.79137502 389.51858054 82.47379924 392.79669968 83.47497559 396.14717102 C85.80427206 393.28123712 87.2325924 390.61849631 88.51794434 387.16279602 C88.86921387 386.22822571 89.2204834 385.2936554 89.58239746 384.33076477 C89.93882324 383.36267883 90.29524902 382.3945929 90.66247559 381.39717102 C91.03050293 380.41361633 91.39853027 379.43006165 91.77770996 378.41670227 C92.6826692 375.99564249 93.58151906 373.57249417 94.47497559 371.14717102 C93.48497559 370.81717102 92.49497559 370.48717102 91.47497559 370.14717102 Z M149.22497559 387.20967102 C146.19020272 392.30375404 145.82873273 397.31225362 146.47497559 403.14717102 C148.34592942 410.28539615 152.29712265 415.1886504 158.47497559 419.14717102 C164.65859268 422.21334268 170.16887723 422.63136922 176.86560059 421.06123352 C183.68881452 418.67106576 188.41201998 414.22456837 191.62731934 407.77217102 C193.71760816 401.29901853 193.67398614 393.97709933 190.91247559 387.70967102 C187.32613126 381.74501414 182.10968354 377.74055319 175.50622559 375.61982727 C164.18675246 372.98587295 155.80620736 378.25188333 149.22497559 387.20967102 Z M54.47497559 388.14717102 C53.61094433 392.55618156 52.75683649 396.96696966 51.91149902 401.3795929 C51.62314167 402.87750291 51.33217456 404.37491316 51.03845215 405.8717804 C50.61442178 408.03520064 50.20010539 410.200301 49.78747559 412.36592102 C49.59061157 413.353927 49.59061157 413.353927 49.38977051 414.3618927 C47.96362274 421.96084037 48.01423062 427.97436565 50.88122559 435.27217102 C51.12538208 435.90453674 51.36953857 436.53690247 51.62109375 437.18843079 C52.39324693 439.17981864 53.18366039 441.1633308 53.97497559 443.14717102 C54.50615553 444.50736762 55.03611483 445.86804157 55.56481934 447.22920227 C56.85415878 450.54082089 58.1599628 453.84564957 59.47497559 457.14717102 C60.13497559 457.14717102 60.79497559 457.14717102 61.47497559 457.14717102 C63.05899805 453.17026356 64.6247689 449.1867724 66.17468262 445.19648743 C66.70336145 443.84269545 67.23680741 442.49075434 67.77526855 441.14082336 C68.55266645 439.18939599 69.312134 437.23174447 70.06872559 435.27217102 C70.52956543 434.09912415 70.99040527 432.92607727 71.46520996 431.71748352 C73.34415888 425.07392719 72.49073176 419.03207102 71.16247559 412.36592102 C71.02929932 411.66696716 70.89612305 410.96801331 70.75891113 410.24787903 C70.33780371 408.04625443 69.90658889 405.84675741 69.47497559 403.64717102 C69.18523824 402.14209244 68.8961697 400.63688495 68.60778809 399.13154602 C67.90456541 395.46856742 67.192273 391.80742274 66.47497559 388.14717102 C62.51497559 388.14717102 58.55497559 388.14717102 54.47497559 388.14717102 Z " fill="#000000" transform="translate(195.5250244140625,-0.1471710205078125)"/>
</svg>
